<svg width="768" height="818" viewBox="0 0 768 818" fill="none" xmlns="http://www.w3.org/2000/svg">
<rect width="768" height="818" fill="#112A24"/>
<g clip-path="url(#clip0_23_426)">
<path d="M398.81 352.283L444.782 364.388H384.488V258L398.81 352.283Z" fill="white"/>
<path d="M370.187 376.473L324.215 364.368H384.508V470.756L370.187 376.473Z" fill="white"/>
<path d="M461.17 558.525C461.048 558.914 460.802 559.242 460.434 559.549C460.065 559.857 459.615 560 459.104 560H454.316L472.587 514.282H478.827L497.097 560H492.309C491.757 560 491.307 559.857 490.979 559.59C490.632 559.324 490.386 558.955 490.222 558.546L475.696 520.202" fill="white"/>
<path d="M210.69 558.525C210.567 558.914 210.322 559.242 209.953 559.549C209.585 559.857 209.135 560 208.623 560H203.836L222.106 514.282H228.346L246.616 560H241.829C241.276 560 240.826 559.857 240.499 559.59C240.151 559.324 239.906 558.955 239.742 558.546L225.216 520.202" fill="white"/>
<path d="M170.158 554.797H189.922V560H164V514.282H170.158V554.797Z" fill="white"/>
<path d="M269.261 514.323C269.445 514.364 269.63 514.405 269.773 514.487C269.916 514.569 270.08 514.671 270.223 514.815C270.366 514.958 270.53 515.122 270.693 515.347L297.106 549.779C297.066 549.226 297.025 548.694 297.004 548.161C296.984 547.628 296.963 547.137 296.963 546.686V514.303H302.385V560.021H299.296C298.805 560.021 298.395 559.939 298.068 559.775C297.741 559.611 297.413 559.324 297.086 558.915L270.673 524.483C270.714 525.015 270.755 525.527 270.775 526.039C270.796 526.552 270.816 527.023 270.816 527.453V560.021H265.395V514.303H268.586C268.852 514.303 269.098 514.303 269.282 514.344L269.261 514.323Z" fill="white"/>
<path d="M366.384 537.162C366.384 540.582 365.852 543.696 364.767 546.502C363.683 549.308 362.149 551.704 360.185 553.712C358.2 555.719 355.827 557.255 353.065 558.361C350.282 559.468 347.234 560 343.879 560H326.836V514.282H343.879C347.234 514.282 350.303 514.835 353.065 515.921C355.847 517.027 358.22 518.563 360.185 520.57C362.149 522.578 363.683 524.995 364.767 527.801C365.852 530.607 366.384 533.72 366.384 537.141V537.162ZM360.041 537.162C360.041 534.355 359.653 531.836 358.896 529.624C358.118 527.412 357.054 525.548 355.643 524.012C354.231 522.475 352.533 521.308 350.548 520.509C348.543 519.71 346.313 519.301 343.858 519.301H332.994V555.002H343.858C346.334 555.002 348.543 554.593 350.548 553.794C352.553 552.995 354.251 551.827 355.643 550.291C357.054 548.775 358.118 546.911 358.896 544.699C359.653 542.487 360.041 539.968 360.041 537.162Z" fill="white"/>
<path d="M411.21 545.089C411.435 545.662 411.68 546.215 411.905 546.768C412.11 546.195 412.335 545.621 412.58 545.068C412.805 544.515 413.071 543.962 413.337 543.45L428.825 515.347C429.071 514.856 429.357 514.569 429.664 514.446C429.971 514.344 430.4 514.282 430.953 514.282H435.515V560H430.093V526.408C430.093 525.957 430.093 525.486 430.134 524.974C430.134 524.462 430.196 523.95 430.237 523.418L414.585 552.012C414.094 552.974 413.358 553.446 412.355 553.446H411.455C410.453 553.446 409.716 552.974 409.225 552.012L393.226 523.336C393.287 523.889 393.328 524.421 393.369 524.954C393.41 525.486 393.41 525.978 393.41 526.429V560.021H387.988V514.303H392.551C393.103 514.303 393.533 514.364 393.819 514.467C394.126 514.569 394.412 514.876 394.678 515.368L410.453 543.511C410.698 544.023 410.944 544.556 411.189 545.129L411.21 545.089Z" fill="white"/>
<path d="M521.998 540.931V560.021H515.84V514.303H528.75C531.634 514.303 534.13 514.589 536.238 515.184C538.345 515.778 540.084 516.617 541.455 517.723C542.826 518.829 543.849 520.161 544.503 521.718C545.158 523.274 545.485 525.036 545.485 526.961C545.485 528.579 545.24 530.095 544.728 531.488C544.217 532.901 543.48 534.151 542.519 535.277C541.557 536.404 540.371 537.346 538.979 538.145C537.588 538.944 536.013 539.538 534.253 539.906C535.051 540.418 535.747 541.074 536.299 541.852L549.618 560H544.135C543.01 560 542.171 559.57 541.659 558.689L529.814 542.344C529.445 541.832 529.057 541.463 528.647 541.238C528.238 541.012 527.583 540.91 526.724 540.91H522.039L521.998 540.931ZM521.998 536.424H528.504C530.284 536.424 531.859 536.199 533.23 535.769C534.601 535.339 535.747 534.724 536.667 533.925C537.588 533.127 538.284 532.184 538.754 531.078C539.225 529.972 539.45 528.743 539.45 527.412C539.45 524.688 538.55 522.639 536.77 521.246C534.99 519.874 532.31 519.178 528.729 519.178H521.978V536.445L521.998 536.424Z" fill="white"/>
<path d="M574.681 534.314H577.013C577.811 534.314 578.466 534.212 578.957 534.007C579.448 533.802 579.898 533.454 580.286 532.963L595.488 515.736C595.917 515.183 596.367 514.794 596.818 514.589C597.288 514.385 597.861 514.262 598.536 514.262H603.753L586.363 533.946C585.933 534.458 585.524 534.868 585.135 535.216C584.747 535.543 584.317 535.81 583.867 536.035C584.44 536.219 584.951 536.506 585.422 536.875C585.892 537.244 586.342 537.735 586.792 538.329L604.96 560H599.6C599.191 560 598.843 559.98 598.557 559.918C598.27 559.857 598.025 559.775 597.8 559.672C597.595 559.549 597.39 559.427 597.247 559.263C597.083 559.099 596.94 558.914 596.777 558.71L581.023 540.562C580.593 540.029 580.143 539.661 579.652 539.435C579.161 539.21 578.425 539.107 577.422 539.107H574.619V560.041H568.461V514.323H574.619V534.355L574.681 534.314Z" fill="white"/>
</g>
<defs>
<clipPath id="clip0_23_426">
<rect width="441" height="302" fill="white" transform="translate(164 258)"/>
</clipPath>
</defs>
</svg>
