<svg xmlns="http://www.w3.org/2000/svg" xmlns:xlink="http://www.w3.org/1999/xlink" width="69" height="69" viewBox="0 0 69 69">
  <defs>
    <clipPath id="clip-path">
      <path id="path330" d="M0-682.665H67.657v67.657H0Z" transform="translate(0 682.665)" fill="#fff"/>
    </clipPath>
    <clipPath id="clip-BBQ_Dining_Area_2">
      <rect width="69" height="69"/>
    </clipPath>
  </defs>
  <g id="BBQ_Dining_Area_2" data-name="BBQ + Dining Area – 2" clip-path="url(#clip-BBQ_Dining_Area_2)">
    <g id="Lagoon_Beach" data-name="Lagoon Beach" transform="translate(-2536 4369)">
      <rect id="Rectangle_15" data-name="Rectangle 15" width="40" height="40" transform="translate(2536 -4369)" fill="none"/>
    </g>
    <g id="g324" transform="translate(4.686 686.008)">
      <g id="g326" transform="translate(0 -682.665)">
        <g id="g328" clip-path="url(#clip-path)">
          <g id="g334" transform="translate(9.505 71.291)">
            <path id="path336" d="M-461.608-312.508v12.1c0,6.638-1.993,10.874-5.327,10.87h-13.114m-4.75,0-12.358-.026c-3.63-.008-4.176-.918-5.783-3.244l-7.11-10.275c-7.038-8.979,3.686-15.436,7.4-10.192l3.045,4.3V-325.9c0-28.94,38-27.434,38,1.289v7.121" transform="translate(512.389 346.888)" fill="none" stroke="#c7a386" stroke-linecap="round" stroke-linejoin="round" stroke-miterlimit="10" stroke-width="1.5"/>
          </g>
        </g>
      </g>
      <g id="g338" transform="translate(0 -682.665)">
        <g id="g340" clip-path="url(#clip-path)">
          <g id="g346" transform="translate(58.353 16.764)">
            <path id="path348" d="M0-61.333H3.268a1.683,1.683,0,0,0,1.681-1.681V-66.4A1.684,1.684,0,0,0,3.268-68.08H0" transform="translate(0 68.08)" fill="none" stroke="#c7a386" stroke-linecap="round" stroke-linejoin="round" stroke-miterlimit="10" stroke-width="1.5"/>
          </g>
          <g id="g350" transform="translate(13.085 61.966)">
            <path id="path352" d="M0,0H24.479" fill="none" stroke="#c7a386" stroke-linecap="round" stroke-linejoin="round" stroke-miterlimit="10" stroke-width="1.5"/>
          </g>
          <g id="g354" transform="translate(18.517 10.461)">
            <path id="path356" d="M-12.193,0c-.508.5-2.387,1.78-.558,4.512a3.454,3.454,0,0,1-.63,4.7" transform="translate(13.534)" fill="none" stroke="#c7a386" stroke-linecap="round" stroke-linejoin="round" stroke-miterlimit="10" stroke-width="1.5"/>
          </g>
          <g id="g358" transform="translate(27.15 10.461)">
            <path id="path360" d="M-12.185,0c-.5.5-2.387,1.78-.558,4.512a3.454,3.454,0,0,1-.63,4.7" transform="translate(13.526)" fill="none" stroke="#c7a386" stroke-linecap="round" stroke-linejoin="round" stroke-miterlimit="10" stroke-width="1.5"/>
          </g>
          <g id="g362" transform="translate(44.079 36.029)">
            <path id="path364" d="M0-.724V-.8" transform="translate(0 0.804)" fill="none" stroke="#c7a386" stroke-linecap="round" stroke-linejoin="round" stroke-miterlimit="10" stroke-width="1.5"/>
          </g>
          <g id="g366" transform="translate(41.519 0.991)">
            <path id="path368" d="M-.022-116.093v-12.025c0-.516-.084-.774.74-.744,19.515.721,21.538,30.251,6.075,36.952M-.022-97.67v-13.786" transform="translate(0.024 128.864)" fill="none" stroke="#c7a386" stroke-linecap="round" stroke-linejoin="round" stroke-miterlimit="10" stroke-width="1.5"/>
          </g>
          <g id="g370" transform="translate(39.43 31.419)">
            <path id="path372" d="M-42.254,0A4.649,4.649,0,0,0-46.9,4.648,4.652,4.652,0,0,0-42.254,9.3,4.653,4.653,0,0,0-37.6,4.648,4.649,4.649,0,0,0-42.254,0Z" transform="translate(46.903)" fill="none" stroke="#c7a386" stroke-linecap="round" stroke-linejoin="round" stroke-miterlimit="10" stroke-width="1.5"/>
          </g>
          <g id="g374" transform="translate(31.868 49.8)">
            <path id="path376" d="M0-17.178,7.471-3.6a2.535,2.535,0,0,0,3.434.994,2.529,2.529,0,0,0,.994-3.43L4.732-19.068A22.245,22.245,0,0,1,0-17.178Z" transform="translate(0 19.068)" fill="none" stroke="#c7a386" stroke-linecap="round" stroke-linejoin="round" stroke-miterlimit="10" stroke-width="1.5"/>
          </g>
          <g id="g378" transform="translate(6.476 49.963)">
            <path id="path380" d="M-111.019-16.522l-7.471,13.577a2.539,2.539,0,0,1-3.434,1,2.539,2.539,0,0,1-1-3.434l7.134-12.959A22.639,22.639,0,0,0-111.019-16.522Z" transform="translate(123.233 18.34)" fill="none" stroke="#c7a386" stroke-linecap="round" stroke-linejoin="round" stroke-miterlimit="10" stroke-width="1.5"/>
          </g>
          <g id="g382" transform="translate(4.355 34.088)">
            <path id="path384" d="M-9.23-57.214A18.6,18.6,0,0,1-10.243-62.7c-.03-.892.247-.8.808-.8h34.7m4.861,6.584C24.746-42.5,1.66-41.166-6.976-52.941" transform="translate(10.245 63.508)" fill="none" stroke="#c7a386" stroke-linecap="round" stroke-linejoin="round" stroke-miterlimit="10" stroke-width="1.5"/>
          </g>
          <g id="g386" transform="translate(10.581 27.454)">
            <path id="path388" d="M0-60.33V-64.3a2.672,2.672,0,0,1,2.664-2.664H23.852A2.673,2.673,0,0,1,26.52-64.3v3.973" transform="translate(0 66.966)" fill="none" stroke="#c7a386" stroke-linecap="round" stroke-linejoin="round" stroke-miterlimit="10" stroke-width="1.5"/>
          </g>
          <g id="g390" transform="translate(23.3 27.454)">
            <path id="path392" d="M-4.656,0l-.512,2.429" transform="translate(5.168)" fill="none" stroke="#c7a386" stroke-linecap="round" stroke-linejoin="round" stroke-miterlimit="10" stroke-width="1.5"/>
          </g>
          <g id="g394" transform="translate(17.859 27.454)">
            <path id="path396" d="M-4.656,0l-.512,2.429" transform="translate(5.168)" fill="none" stroke="#c7a386" stroke-linecap="round" stroke-linejoin="round" stroke-miterlimit="10" stroke-width="1.5"/>
          </g>
          <g id="g398" transform="translate(28.605 27.454)">
            <path id="path400" d="M-4.656,0l-.512,2.429" transform="translate(5.168)" fill="none" stroke="#c7a386" stroke-linecap="round" stroke-linejoin="round" stroke-miterlimit="10" stroke-width="1.5"/>
          </g>
        </g>
      </g>
    </g>
  </g>
</svg>
