<svg xmlns="http://www.w3.org/2000/svg" xmlns:xlink="http://www.w3.org/1999/xlink" width="65" height="65" viewBox="0 0 65 65">
  <defs>
    <clipPath id="clip-path">
      <path id="path1308" d="M0-682.665H65v65H0Z" transform="translate(0 682.665)"/>
    </clipPath>
  </defs>
  <g id="kids_play_area" data-name="kids play area" transform="translate(0 682.665)">
    <g id="g1304" transform="translate(0 -682.665)">
      <g id="g1306" clip-path="url(#clip-path)">
        <g id="g1312" transform="translate(35.813 21.321)">
          <path id="path1314" d="M0-219.4l3.18,16.909H28.234l-7.523-40H13.274" transform="translate(0 242.493)" fill="none" stroke="#c7a386" stroke-linecap="round" stroke-linejoin="round" stroke-miterlimit="10" stroke-width="1.5"/>
        </g>
        <g id="g1316" transform="translate(0.952 21.321)">
          <path id="path1318" d="M-273.136-320.522l-3.6,6.268h-25.141l23-40h20.908" transform="translate(301.879 354.253)" fill="none" stroke="#c7a386" stroke-linecap="round" stroke-linejoin="round" stroke-miterlimit="10" stroke-width="1.5"/>
        </g>
      </g>
    </g>
    <g id="g1320" transform="translate(31.592 -661.344)">
      <path id="path1322" d="M-166.251,0l-17.5,30.431" transform="translate(183.746)" fill="none" stroke="#c7a386" stroke-linecap="round" stroke-linejoin="round" stroke-miterlimit="10" stroke-width="1.5"/>
    </g>
    <g id="g1324" transform="translate(0 -682.665)">
      <g id="g1326" clip-path="url(#clip-path)">
        <g id="g1332" transform="translate(26.093 13.958)">
          <path id="path1334" d="M-218.511-69.958V-77.32l-23,40v7.362" transform="translate(241.506 77.32)" fill="none" stroke="#c7a386" stroke-linecap="round" stroke-linejoin="round" stroke-miterlimit="10" stroke-width="1.5"/>
        </g>
        <g id="g1336" transform="translate(0.952 13.958)">
          <path id="path1338" d="M-218.507-69.953v-7.362l-22.995,40v7.362Z" transform="translate(241.502 77.314)" fill="none" stroke="#c7a386" stroke-linecap="round" stroke-linejoin="round" stroke-miterlimit="10" stroke-width="1.5"/>
        </g>
        <g id="g1340" transform="translate(49.087 3.682)">
          <path id="path1342" d="M-70.67-167.607v-13.92a3.719,3.719,0,0,0-3.718-3.718,3.718,3.718,0,0,0-3.718,3.718v6.558" transform="translate(78.106 185.245)" fill="none" stroke="#c7a386" stroke-linecap="round" stroke-linejoin="round" stroke-miterlimit="10" stroke-width="1.5"/>
        </g>
        <g id="g1344" transform="translate(23.947 3.682)">
          <path id="path1346" d="M0-97.656v-6.558a3.706,3.706,0,0,1,1.089-2.629,3.706,3.706,0,0,1,2.629-1.089,3.72,3.72,0,0,1,3.718,3.718v2.949" transform="translate(0 107.933)" fill="none" stroke="#c7a386" stroke-linecap="round" stroke-linejoin="round" stroke-miterlimit="10" stroke-width="1.5"/>
        </g>
        <g id="g1348" transform="translate(31.384 14.158)">
          <path id="path1350" d="M0-68.064v-7.163" transform="translate(0 75.226)" fill="none" stroke="#c7a386" stroke-linecap="round" stroke-linejoin="round" stroke-miterlimit="10" stroke-width="1.5"/>
        </g>
        <g id="g1352" transform="translate(43.249 31.475)">
          <path id="path1354" d="M-144.295,0H-159.48" transform="translate(159.48 0)" fill="none" stroke="#c7a386" stroke-linecap="round" stroke-linejoin="round" stroke-miterlimit="10" stroke-width="1.5"/>
        </g>
        <g id="g1356" transform="translate(37.329 41.773)">
          <path id="path1358" d="M-218.957,0H-242" transform="translate(241.999 0)" fill="none" stroke="#c7a386" stroke-linecap="round" stroke-linejoin="round" stroke-miterlimit="10" stroke-width="1.5"/>
        </g>
        <g id="g1360" transform="translate(37.254 52.068)">
          <path id="path1362" d="M-238.078,0h-25.054" transform="translate(263.133 0)" fill="none" stroke="#c7a386" stroke-linecap="round" stroke-linejoin="round" stroke-miterlimit="10" stroke-width="1.5"/>
        </g>
      </g>
    </g>
  </g>
</svg>
