<svg xmlns="http://www.w3.org/2000/svg" xmlns:xlink="http://www.w3.org/1999/xlink" width="39.519" height="39.519" viewBox="0 0 39.519 39.519">
  <defs>
    <clipPath id="clip-path">
      <path id="path2622" d="M0-682.665H39.519v39.519H0Z" transform="translate(0 682.665)" fill="none"/>
    </clipPath>
  </defs>
  <g id="g2616" transform="translate(0 682.665)">
    <g id="g2618" transform="translate(0 -682.665)">
      <g id="g2620" clip-path="url(#clip-path)">
        <g id="g2626" transform="translate(1.158 11.31)">
          <path id="path2628" d="M-585.313-16.456a10.792,10.792,0,0,0-8.252-.36L-615-9.015-618.43-11.8l-2.848,1.037,1.814,4.984a5.3,5.3,0,0,0,6.8,3.17l9-3.275-2.037,8,5.34-1.944,3.785-8.635,11.094-4.038a2.143,2.143,0,0,0,1.281-2.747A2.143,2.143,0,0,0-585.313-16.456Z" transform="translate(621.278 17.467)" fill="none" stroke="#c7a386" stroke-linecap="round" stroke-linejoin="round" stroke-miterlimit="10" stroke-width="1.5"/>
        </g>
        <g id="g2630" transform="translate(10.543 8.625)">
          <path id="path2632" d="M-86.91,0l-5.34,1.944L-84.8,7.3l7.282-2.651Z" transform="translate(92.25)" fill="none" stroke="#c7a386" stroke-linecap="round" stroke-linejoin="round" stroke-miterlimit="10" stroke-width="1.5"/>
        </g>
      </g>
    </g>
  </g>
</svg>
