<svg xmlns="http://www.w3.org/2000/svg" width="36.029" height="29.638" viewBox="0 0 36.029 29.638">
  <g id="DUBAI_MARINA" data-name="DUBAI MARINA" transform="translate(-418.55 -10740.95)">
    <g id="icons_dubai-marina" transform="translate(416.579 10733.05)">
      <path id="Path_98011" data-name="Path 98011" d="M37.5,25.5a.909.909,0,0,1-.8.4A7.3,7.3,0,0,0,32.9,27a8.4,8.4,0,0,1-5.1,1.2,9.913,9.913,0,0,1-4-1.3,7.32,7.32,0,0,0-7.3-.2,13.069,13.069,0,0,1-2.7,1.2A8.282,8.282,0,0,1,7.1,27a7.655,7.655,0,0,0-3.9-1.1.749.749,0,0,1-.5-.1c-.2-.2-.3-.3-.2-.6s.3-.5.6-.4a.887.887,0,0,0,1-.6c.8-1.2,1.6-2.4,2.3-3.7.2-.3.4-.5.8-.4a1.1,1.1,0,0,0,1.3-.7,9.382,9.382,0,0,1,.9-1.2,1,1,0,0,1,1.1-.5.548.548,0,0,0,.6-.4c.4-.9.9-1.9,1.4-2.8.1-.3.1-.4-.2-.3a2.618,2.618,0,0,1-1.7-.5,1.7,1.7,0,0,1-.4-1.8,1.6,1.6,0,0,1,1.4-1.2,16.152,16.152,0,0,1,2.2,0c.6,0,.5,0,.3-.5A1.008,1.008,0,0,0,13,9.5a4.819,4.819,0,0,1-1.2,0c-.4,0-.6-.2-.6-.5a.576.576,0,0,1,.6-.6H18a.749.749,0,0,1,.5.1.713.713,0,0,1,.3.6.548.548,0,0,1-.6.4H15.8c-.7,0-.7,0-.4.6a.875.875,0,0,0,.9.6h5.2A3.585,3.585,0,0,1,25,12.9a2.651,2.651,0,0,0,.5.6c1.9,1.4,3.8,2.7,5.6,4.1a.749.749,0,0,0,.5.1H36a1.417,1.417,0,0,1,1.5.9v.5a2.186,2.186,0,0,1-.3.5c-1.4,1.7-2.7,3.3-4.1,5-.4.5-.9,1.1-1.3,1.6a3.552,3.552,0,0,0,.9-.4,8.017,8.017,0,0,1,4-1.1.812.812,0,0,1,.8.4C37.5,25.2,37.5,25.3,37.5,25.5ZM9.5,21H21.4c.8,0,.9-1.2.9-1.9,0-.2-.1-.3-.3-.2H10.6c-.1,0-.3-.1-.4.1A9.609,9.609,0,0,1,9.5,21Zm18-4.5h0c-.134-.134-9.1,0-7.8,0h7.8Zm-2.2,3.3v.7a.666.666,0,0,0,.5.7.576.576,0,0,0,.6-.6V19.1a.215.215,0,0,0-.2-.2c-.9-.2-.9-.2-.9.9Zm3.5,0v-.1c0-.9,0-.9-.9-.9a.265.265,0,0,0-.3.3v1.5a.576.576,0,0,0,.6.6.645.645,0,0,0,.6-.6C28.8,20.3,28.8,20,28.8,19.8Zm2.3,0h0c0-.3.1-.7,0-.9-.2-.2-.6-.1-.9-.1h0c-.1,0-.2,0-.2.2v1.6a.645.645,0,0,0,.6.6c.3,0,.5-.2.5-.6Z" fill="none" stroke="#c7a386" stroke-width="1"/>
      <path id="Path_98030" data-name="Path 98030" d="M1.5,33.249s4.613-.284,7.62,1.681,8.9-3.875,15.358-.911,10.033-2.07,11.8-1.543" transform="translate(1.221 -3.213)" fill="none" stroke="#c7a386" stroke-width="1"/>
      <path id="Path_98031" data-name="Path 98031" d="M1.5,33.249s4.613-.284,7.62,1.681,8.9-3.875,15.358-.911,10.033-2.07,11.8-1.543" transform="translate(1.221 1.787)" fill="none" stroke="#c7a386" stroke-width="1"/>
    </g>
  </g>
</svg>
