<svg xmlns="http://www.w3.org/2000/svg" xmlns:xlink="http://www.w3.org/1999/xlink" width="75" height="75" viewBox="0 0 75 75">
  <defs>
    <clipPath id="clip-path">
      <rect id="Rectangle_15" data-name="Rectangle 15" width="75" height="75" transform="translate(10249 458)" fill="#c9a585"/>
    </clipPath>
  </defs>
  <g id="Mask_Group_11" data-name="Mask Group 11" transform="translate(-10249 -458)" clip-path="url(#clip-path)">
    <g id="_002-amphitheatre" data-name="002-amphitheatre" transform="translate(10249 458)">
      <path id="Path_58" data-name="Path 58" d="M50.915,46.891a1.1,1.1,0,1,0-1.128,1.885C51,49.5,51.666,50.293,51.666,51c0,1.993-5.389,4.773-14.166,4.773S23.334,53,23.334,51s5.389-4.773,14.166-4.773a34.063,34.063,0,0,1,7.844.864,1.1,1.1,0,0,0,.515-2.136,36.282,36.282,0,0,0-8.359-.925c-7.933,0-16.364,2.443-16.364,6.97s8.431,6.97,16.363,6.97S53.864,55.531,53.864,51c0-1.071-.512-2.654-2.949-4.113Z" fill="#c9a585"/>
      <path id="Path_59" data-name="Path 59" d="M63.607,19.7c-6.99-2.48-16.262-3.846-26.107-3.846S18.383,17.218,11.393,19.7C4.046,22.306,0,25.917,0,29.867V58.049a1.1,1.1,0,0,0,1.1,1.1H17.538a1.1,1.1,0,0,0,.949-1.652l-4.439-7.609c1.17-6,11.469-10.7,23.452-10.7a38.068,38.068,0,0,1,16.341,3.361c4.065,1.988,6.575,4.584,7.111,7.34L56.513,57.5a1.1,1.1,0,0,0,.949,1.652H73.9a1.1,1.1,0,0,0,1.1-1.1V29.867c0-3.951-4.046-7.562-11.393-10.169Zm9.185,9.891-2.276,3.9a12.806,12.806,0,0,0-4.233-4.155,1.1,1.1,0,0,0-1.2,1.841c2.241,1.461,3.633,3.069,4.056,4.674l-2.993,5.131c-1.079-2.487-3.517-4.758-7.137-6.611l5.5-11.981c5.111,2.074,8.083,4.644,8.284,7.2ZM53.932,40.165A35.852,35.852,0,0,0,45.7,37.7l.6-4.911a41.838,41.838,0,0,1,9.8,2.65ZM20.916,33.5a1.1,1.1,0,0,0,1.37.732A46.513,46.513,0,0,1,28.7,32.8l.6,4.909a35.873,35.873,0,0,0-8.232,2.463L15.677,28.418l.086-.031a56.96,56.96,0,0,1,12.061-2.714l.607,4.943a48.779,48.779,0,0,0-6.782,1.512,1.1,1.1,0,0,0-.733,1.37ZM5.86,35.849c.627-2.385,3.417-4.743,7.77-6.624l2.362,5.147c-3.618,1.853-6.056,4.126-7.136,6.612ZM26.956,18.6l.6,4.89a59.207,59.207,0,0,0-12.533,2.824l-.266.1-2.2-4.794A67.324,67.324,0,0,1,26.956,18.6Zm3.053,6.835c2.432-.226,4.944-.343,7.491-.343s5.065.116,7.491.341l-.6,4.888a62.236,62.236,0,0,0-13.782,0Zm17.168.232a56.537,56.537,0,0,1,12.147,2.748l-2.307,5.027A44.079,44.079,0,0,0,46.57,30.611Zm15.266-4.049-2.2,4.793a58.532,58.532,0,0,0-12.8-2.924l.6-4.887a67.311,67.311,0,0,1,14.4,3.018ZM45.856,18.394l-.6,4.861c-2.516-.235-5.115-.357-7.759-.357s-5.237.122-7.759.359l-.6-4.863c2.7-.227,5.5-.344,8.356-.344s5.651.117,8.356.344Zm-35.363,4,2.22,4.837c-4.022,1.745-6.846,3.9-8.224,6.272L2.208,29.59C2.41,27.035,5.382,24.464,10.493,22.39ZM2.2,56.95V33.931L15.625,56.951H2.2Zm10.392-9.565-2.164-3.71c.152-2.652,2.432-5.217,6.483-7.306l2.19,4.773A14.922,14.922,0,0,0,12.589,47.385ZM31.474,37.372l-.6-4.864a60.191,60.191,0,0,1,13.247,0l-.6,4.867a47.65,47.65,0,0,0-12.053,0ZM55.9,41.143l2.19-4.772c4,2.071,6.327,4.683,6.483,7.3l-2.163,3.708A14.894,14.894,0,0,0,55.9,41.143ZM72.8,56.95H59.375L72.8,33.931Z" fill="#c9a585"/>
    </g>
  </g>
</svg>
