<svg xmlns="http://www.w3.org/2000/svg" xmlns:xlink="http://www.w3.org/1999/xlink" width="65" height="65" viewBox="0 0 65 65">
  <defs>
    <clipPath id="clip-E">
      <rect width="65" height="65"/>
    </clipPath>
  </defs>
  <g id="E" clip-path="url(#clip-E)">
    <g id="Layer_x0020_1" transform="translate(-5006.82 -6294.797)">
      <path id="Path_103993" data-name="Path 103993" d="M5019.315,6314.338l-4.563,1.7a1.7,1.7,0,0,0-1,2.176l.595,1.6a48.906,48.906,0,0,0,9.062.225l-1.776-4.763a1.7,1.7,0,0,0-2.175-.988Zm21.83,31.113a.821.821,0,1,1,0-1.642h4.032a.821.821,0,1,1,0,1.642Zm-8.063,0a.821.821,0,1,1,0-1.642h4.031a.821.821,0,1,1,0,1.642Zm12.1-5.163a.822.822,0,0,1,0-1.644h4.031a.822.822,0,0,1,0,1.644Zm-8.064,0a.822.822,0,1,1,0-1.644h4.032a.822.822,0,0,1,0,1.644Zm-8.064,0a.822.822,0,1,1,0-1.644h4.033a.822.822,0,0,1,0,1.644Zm32.6-16.992a.819.819,0,1,1-.455,1.573l-5.8-1.681a.818.818,0,1,1,.456-1.572Zm.4-4.072a.819.819,0,0,1-.455,1.573l-4.25-1.231a.819.819,0,1,1,.455-1.573Zm.084-4.152a.818.818,0,1,1-.455,1.572l-2.194-.636a.819.819,0,0,1,.455-1.573Zm-52.489,37.541a.821.821,0,1,1,0-1.643h8.207c-.187-.148-.369-.3-.546-.467a10.344,10.344,0,0,1-2.94-5.589l-3.474-17.839h4.421q-1.545-4.144-3.088-8.288a3.338,3.338,0,0,1,1.468-4.054l-1.1-2.947,5.718-2.133,1.1,2.95a3.335,3.335,0,0,1,3.763,2.1l2.855,7.662a6.292,6.292,0,0,1,1.672-2.983c.052-.051.1-.1.158-.153a5.288,5.288,0,0,1-2.153-1.849l-.33-.456.308-.472c1.22-1.878,3.724-2.455,5.3-.687a3.853,3.853,0,0,1,.869,1.781c.1,0,.2-.008.3-.008a6.3,6.3,0,0,1,2.8.657,6.441,6.441,0,0,1,.743.439v-15.408a3.435,3.435,0,1,1,6.869,0v5.031a19.7,19.7,0,0,0,6.291,2.474,38.388,38.388,0,0,0,8.594.775c1.885-2.215,3.787-3.289,5.434-2.812,1.9.551,2.979,3,3.231,6.609a43.415,43.415,0,0,1-1.146,11.767h2.4l-3.474,17.839a10.331,10.331,0,0,1-2.94,5.589c-.176.163-.358.319-.547.467h8.21a.821.821,0,1,1,0,1.643Zm13-1.643h32.97a6.085,6.085,0,0,0,4.223-1.663,8.693,8.693,0,0,0,2.446-4.7l3.095-15.887h-18.392v1.938a2.82,2.82,0,0,1-2.815,2.815h-9.528l-16,10.364v-15.117h-5.757l3.094,15.887a8.694,8.694,0,0,0,2.447,4.7A6.081,6.081,0,0,0,5022.644,6350.971Zm27.312-29.642a6.65,6.65,0,0,1,1.394.148q.261.058.516.136a43.566,43.566,0,0,1,4.053-8.049c.095-.142.188-.281.283-.418a38,38,0,0,1-7.7-.811,22.021,22.021,0,0,1-5.938-2.174v16.914h.874a6.584,6.584,0,0,1,2.947-4.689l.53-.344c.315.288.609.659,1.072.659a.886.886,0,0,0,.564-.2,1.8,1.8,0,0,0,.439-1.133l.635-.031Zm3.279,1.28-.131.346q-.283.749-.544,1.5l0,.009-.025.073v0l-.012.035,0,.009-.01.026,0,.015c-.275.8-.539,1.618-.791,2.456h11.577a42.263,42.263,0,0,0,1.189-11.657c-.2-2.9-.892-4.81-2.05-5.144-.965-.28-2.223.513-3.589,2.109-.554.685-1.066,1.349-1.554,2.086A43.007,43.007,0,0,0,5053.234,6322.609Zm-2.232.474a5.025,5.025,0,0,0-.77-.1,2.543,2.543,0,0,1-2.245,1.365,2.55,2.55,0,0,1-.916-.173c-.074-.031-.15-.063-.223-.1a4.945,4.945,0,0,0-1.227,1.475,4.807,4.807,0,0,0-.523,1.528h4.9q.584-1.98,1.282-3.923C5051.19,6323.127,5051.1,6323.1,5051,6323.083Zm-18.555,9.857a2.818,2.818,0,0,1-1.175-2.284v-1.937h-10.99v12.1Zm.47-4.222v1.938a1.174,1.174,0,0,0,1.173,1.172h10.08a1.176,1.176,0,0,0,1.172-1.172v-1.937Zm8-1.643v-23.843a1.791,1.791,0,1,0-3.582,0v23.843Zm-13.5-10.174a2.187,2.187,0,0,0,2.763.749,2.115,2.115,0,0,0-.427-.787A1.552,1.552,0,0,0,5027.419,6316.9Zm6.8,2.771a4.651,4.651,0,0,0-5.411,7.4h6.886v-6.247A4.7,4.7,0,0,0,5034.22,6319.672Zm-8.185,7.4-2.028-5.444a49.53,49.53,0,0,1-9.017-.1l2.067,5.547h8.978Zm-8.687-15.314-2.649.987.512,1.374,2.651-.988Z" transform="translate(-0.001 0)" fill="#c7a386"/>
    </g>
  </g>
</svg>
