<svg xmlns="http://www.w3.org/2000/svg" xmlns:xlink="http://www.w3.org/1999/xlink" width="65" height="65" viewBox="0 0 65 65">
  <defs>
    <clipPath id="clip-path">
      <path id="path837" d="M0-682.665H65v65H0Z" transform="translate(0 682.665)"/>
    </clipPath>
  </defs>
  <g id="pool_and_cabana" data-name="pool and cabana" transform="translate(0 682.665)">
    <g id="g833" transform="translate(0 -682.665)">
      <g id="g835" clip-path="url(#clip-path)">
        <g id="g841" transform="translate(0 40.371)">
          <path id="path843" d="M-617.665,0h-65" transform="translate(682.665 0)" fill="none" stroke="#c7a386" stroke-miterlimit="10" stroke-width="1.5" stroke-dasharray="390 15"/>
        </g>
        <g id="g845" transform="translate(0 44.18)">
          <path id="path847" d="M0,0H65" transform="translate(0 0)" fill="none" stroke="#c7a386" stroke-miterlimit="10" stroke-width="1.5" stroke-dasharray="187 15"/>
        </g>
      </g>
    </g>
    <g id="g849" transform="translate(43.418 -634.677)">
      <path id="path851" d="M-115.812,0H-128" transform="translate(128)" fill="none" stroke="#c7a386" stroke-miterlimit="10" stroke-width="1.5"/>
    </g>
    <g id="g853" transform="translate(43.418 -630.868)">
      <path id="path855" d="M-115.812,0H-128" transform="translate(128)" fill="none" stroke="#c7a386" stroke-miterlimit="10" stroke-width="1.5"/>
    </g>
    <g id="g857" transform="translate(0 -682.665)">
      <g id="g859" clip-path="url(#clip-path)">
        <g id="g865" transform="translate(0 61.445)">
          <path id="path867" d="M0,0C5.417,0,5.417,2.539,10.833,2.539S16.25,0,21.666,0,27.083,2.539,32.5,2.539,37.916,0,43.332,0s5.417,2.539,10.834,2.539S59.583,0,65,0" fill="none" stroke="#c7a386" stroke-miterlimit="10" stroke-width="1.5"/>
        </g>
        <g id="g869" transform="translate(0 55.098)">
          <path id="path871" d="M0,0C5.417,0,5.417,2.539,10.833,2.539S16.25,0,21.666,0,27.083,2.539,32.5,2.539,37.916,0,43.332,0s5.417,2.539,10.834,2.539S59.583,0,65,0" fill="none" stroke="#c7a386" stroke-miterlimit="10" stroke-width="1.5"/>
        </g>
        <g id="g873" transform="translate(43.418 30.977)">
          <path id="path875" d="M0-229.212v-20.947a3.174,3.174,0,0,1,3.174-3.174,3.174,3.174,0,0,1,3.174,3.174v6.221" transform="translate(0 253.333)" fill="none" stroke="#c7a386" stroke-miterlimit="10" stroke-width="1.5"/>
        </g>
        <g id="g877" transform="translate(55.605 30.977)">
          <path id="path879" d="M0-253.339v-23.486A3.174,3.174,0,0,1,3.174-280a3.174,3.174,0,0,1,3.174,3.174v6.221" transform="translate(0 279.999)" fill="none" stroke="#c7a386" stroke-miterlimit="10" stroke-width="1.5"/>
        </g>
        <g id="g881" transform="translate(1.904 25.898)">
          <path id="path883" d="M0,0,5.586,9.395H24.121l3.809,5.078" fill="none" stroke="#c7a386" stroke-miterlimit="10" stroke-width="1.5"/>
        </g>
        <g id="g885" transform="translate(5.078 35.293)">
          <path id="path887" d="M-22.921,0l-2.412,5.078" transform="translate(25.333)" fill="none" stroke="#c7a386" stroke-miterlimit="10" stroke-width="1.5"/>
        </g>
        <g id="g889" transform="translate(4.951 31.23)">
          <path id="path891" d="M0,0H6.348A2.539,2.539,0,0,1,8.887,2.539V4.063" fill="none" stroke="#c7a386" stroke-miterlimit="10" stroke-width="1.5"/>
        </g>
        <g id="g893" transform="translate(10.537 1.016)">
          <path id="path895" d="M-132.7-144.765c0-8.414-3.126-15.234-6.982-15.234s-6.982,6.821-6.982,15.234" transform="translate(146.666 160)" fill="none" stroke="#c7a386" stroke-miterlimit="10" stroke-width="1.5"/>
        </g>
        <g id="g897" transform="translate(1.016 1.016)">
          <path id="path899" d="M0-144.765v-.1C0-152.748,7.389-160,16.5-160s16.5,7.251,16.5,15.139v.1c0-1.542-2.132-2.793-4.761-2.793s-4.761,1.25-4.761,2.793c0-1.636-3.126-3.555-6.982-3.555s-6.982,1.919-6.982,3.555c0-1.542-2.132-2.793-4.761-2.793S0-146.308,0-144.765Z" transform="translate(0 160)" fill="none" stroke="#c7a386" stroke-miterlimit="10" stroke-width="1.5" stroke-dasharray="800 15 15 15"/>
        </g>
        <g id="g901" transform="translate(17.52 12.695)">
          <path id="path903" d="M0-180.957V-200" transform="translate(0 200)" fill="none" stroke="#c7a386" stroke-miterlimit="10" stroke-width="1.5" stroke-dasharray="15 15 600 15"/>
        </g>
        <g id="g905" transform="translate(2.539 47.988)">
          <path id="path907" d="M0,0H1.9" fill="none" stroke="#c7a386" stroke-miterlimit="10" stroke-width="1.5"/>
        </g>
        <g id="g909" transform="translate(13.965 47.988)">
          <path id="path911" d="M0,0H1.9" fill="none" stroke="#c7a386" stroke-miterlimit="10" stroke-width="1.5"/>
        </g>
        <g id="g913" transform="translate(25.391 47.988)">
          <path id="path915" d="M0,0H1.9" fill="none" stroke="#c7a386" stroke-miterlimit="10" stroke-width="1.5"/>
        </g>
        <g id="g917" transform="translate(36.816 47.988)">
          <path id="path919" d="M0,0H1.9" fill="none" stroke="#c7a386" stroke-miterlimit="10" stroke-width="1.5"/>
        </g>
        <g id="g921" transform="translate(59.668 47.988)">
          <path id="path923" d="M0,0H1.9" fill="none" stroke="#c7a386" stroke-miterlimit="10" stroke-width="1.5"/>
        </g>
      </g>
    </g>
  </g>
</svg>
