<svg xmlns="http://www.w3.org/2000/svg" xmlns:xlink="http://www.w3.org/1999/xlink" width="66" height="66" viewBox="0 0 66 66">
  <defs>
    <clipPath id="clip-path">
      <path id="path1605" d="M0-682.665H57.605v57.605H0Z" transform="translate(0 682.665)"/>
    </clipPath>
    <clipPath id="clip-Steam_and_Sauna">
      <rect width="66" height="66"/>
    </clipPath>
  </defs>
  <g id="Steam_and_Sauna" data-name="Steam and Sauna" clip-path="url(#clip-Steam_and_Sauna)">
    <g id="steam_and_sauna-2" data-name="steam and sauna" transform="translate(5 686.862)">
      <g id="g1601" transform="translate(0 -682.665)">
        <g id="g1603" clip-path="url(#clip-path)">
          <g id="g1609" transform="translate(19.781 6.42)">
            <path id="path1611" d="M-195.486-108.688c0-4.533-6.8-8.761-9.008-10.017-2.213,1.256-9.008,5.483-9.008,10.017,0,.993,0,2.464,0,3.448a11.549,11.549,0,0,0,8.046,10.6,2.979,2.979,0,0,0,1.948,0,11.507,11.507,0,0,0,8.021-10.6C-195.486-106.253-195.486-107.671-195.486-108.688Z" transform="translate(213.502 118.705)" fill="none" stroke="#c7a386" stroke-linecap="round" stroke-linejoin="round" stroke-miterlimit="10" stroke-width="1"/>
          </g>
          <g id="g1613" transform="translate(17.326 3.051)">
            <path id="path1615" d="M-26.632-145.249c0-4.533,6.8-8.761,9.008-10.017l-6.735-3.369s-8.48,4.1-2.726,15.481c.152.3.3.578.452.838C-26.632-143.042-26.632-144-26.632-145.249Z" transform="translate(29.086 158.636)" fill="none" stroke="#c7a386" stroke-linecap="round" stroke-linejoin="round" stroke-miterlimit="10" stroke-width="1"/>
          </g>
          <g id="g1617" transform="translate(22.054 1.74)">
            <path id="path1619" d="M-26.47-.209a2.544,2.544,0,0,0-2.439,1.292l6.735,3.369c2.213,1.256,9.008,5.484,9.008,10.017,0,1.574,0,2.672,0,3.444h0C-7.468,3.153-26.47-.209-26.47-.209Z" transform="translate(28.909 0.229)" fill="none" stroke="#c7a386" stroke-linecap="round" stroke-linejoin="round" stroke-miterlimit="10" stroke-width="1"/>
          </g>
          <g id="g1621" transform="translate(24.874 0.846)">
            <path id="path1623" d="M-116.432-23.708c-4.957-4.081-10.73-1.194-10.73-1.194,2.562.553,17.1,4.265,13.386,16.7h0C-110.137-13.677-111.651-19.772-116.432-23.708Z" transform="translate(127.162 25.893)" fill="none" stroke="#c7a386" stroke-linecap="round" stroke-linejoin="round" stroke-miterlimit="10" stroke-width="1"/>
          </g>
          <g id="g1625" transform="translate(18.805 4.909)">
            <path id="path1627" d="M-10.585-125.086c0-4.533,6.8-8.761,9.008-10.017l-3.02-1.511c-10.533,4.5-5.988,14.972-5.988,14.972h0C-10.585-122.414-10.585-123.513-10.585-125.086Z" transform="translate(11.56 136.614)" fill="none" stroke="#c7a386" stroke-linecap="round" stroke-linejoin="round" stroke-miterlimit="10" stroke-width="1"/>
          </g>
          <g id="g1629" transform="translate(40.864 44.885)">
            <path id="path1631" d="M0-18.493v-1.7" transform="translate(0 20.197)" fill="none" stroke="#c7a386" stroke-linecap="round" stroke-linejoin="round" stroke-miterlimit="10" stroke-width="1"/>
          </g>
          <g id="g1633" transform="translate(16.742 44.885)">
            <path id="path1635" d="M0-18.493v-1.7" transform="translate(0 20.197)" fill="none" stroke="#c7a386" stroke-linecap="round" stroke-linejoin="round" stroke-miterlimit="10" stroke-width="1"/>
          </g>
          <g id="g1637" transform="translate(4.771 53.308)">
            <path id="path1639" d="M-506.729,0h-45.337a1.367,1.367,0,0,0-1.363,1.364v.725a1.367,1.367,0,0,0,1.363,1.364h45.337a1.367,1.367,0,0,0,1.364-1.364V1.364A1.368,1.368,0,0,0-506.729,0Z" transform="translate(553.429)" fill="none" stroke="#c7a386" stroke-linecap="round" stroke-linejoin="round" stroke-miterlimit="10" stroke-width="1"/>
          </g>
          <g id="g1641" transform="translate(16.742 49.856)">
            <path id="path1643" d="M-261.742-37.454v-3.452a1.348,1.348,0,0,1-.56.122h-23a1.347,1.347,0,0,1-.56-.122v3.452Z" transform="translate(285.865 40.905)" fill="none" stroke="#c7a386" stroke-linecap="round" stroke-linejoin="round" stroke-miterlimit="10" stroke-width="1"/>
          </g>
          <g id="g1645" transform="translate(41.842 24.79)">
            <path id="path1647" d="M-6.028,0a3.466,3.466,0,0,0,0,3.714,3.467,3.467,0,0,1,0,3.714" transform="translate(6.583)" fill="none" stroke="#c7a386" stroke-linecap="round" stroke-linejoin="round" stroke-miterlimit="10" stroke-width="1"/>
          </g>
          <g id="g1649" transform="translate(49.079 28.28)">
            <path id="path1651" d="M-6.028,0a3.466,3.466,0,0,0,0,3.714,3.466,3.466,0,0,1,0,3.714" transform="translate(6.583)" fill="none" stroke="#c7a386" stroke-linecap="round" stroke-linejoin="round" stroke-miterlimit="10" stroke-width="1"/>
          </g>
          <g id="g1653" transform="translate(14.598 24.79)">
            <path id="path1655" d="M-6.028,0a3.466,3.466,0,0,1,0,3.714,3.466,3.466,0,0,0,0,3.714" transform="translate(6.583)" fill="none" stroke="#c7a386" stroke-linecap="round" stroke-linejoin="round" stroke-miterlimit="10" stroke-width="1"/>
          </g>
          <g id="g1657" transform="translate(7.361 28.28)">
            <path id="path1659" d="M-6.028,0a3.466,3.466,0,0,1,0,3.714,3.466,3.466,0,0,0,0,3.714" transform="translate(6.583)" fill="none" stroke="#c7a386" stroke-linecap="round" stroke-linejoin="round" stroke-miterlimit="10" stroke-width="1"/>
          </g>
          <g id="g1661" transform="translate(15.938 46.57)">
            <path id="path1663" d="M-118.225,0h-9.532a1.367,1.367,0,0,0-1.363,1.364v.682a1.367,1.367,0,0,0,1.363,1.363h23a1.367,1.367,0,0,0,1.364-1.363V1.364A1.368,1.368,0,0,0-104.755,0h-9.532" transform="translate(129.121)" fill="none" stroke="#c7a386" stroke-linecap="round" stroke-linejoin="round" stroke-miterlimit="10" stroke-width="1"/>
          </g>
          <g id="g1665" transform="translate(8.197 28.669)">
            <path id="path1667" d="M-447.179-178.782v-1.153a7.472,7.472,0,0,0-4.362-6.765l-11.317-4.383a.744.744,0,0,1-.476-.694v-3.476a12.815,12.815,0,0,1-3.479,1.805,2.979,2.979,0,0,1-1.948,0,12.843,12.843,0,0,1-3.488-1.811v3.481a.745.745,0,0,1-.475.694l-11.305,4.383a7.472,7.472,0,0,0-4.362,6.765v9.316h41.212v-4.225" transform="translate(488.391 195.258)" fill="none" stroke="#c7a386" stroke-linecap="round" stroke-linejoin="round" stroke-miterlimit="10" stroke-width="1"/>
          </g>
        </g>
      </g>
    </g>
  </g>
</svg>
