<svg xmlns="http://www.w3.org/2000/svg" width="53.994" height="53.977" viewBox="0 0 53.994 53.977">
  <g id="outdoor-cinema" transform="translate(-2.509 -2.49)">
    <path id="Path_97828" data-name="Path 97828" d="M56.456,55.711a1.6,1.6,0,0,1-1.542.755c-4.3-.031-8.6,0-12.9,0-.74,0-1.2-.355-1.264-.987a1.1,1.1,0,0,1,1.095-1.264c.37-.031.74,0,1.11,0h1.095V44.179h-13.4a16.45,16.45,0,0,1-.17,1.773,6.162,6.162,0,0,1-6.136,4.918c-2.929.015-5.859,0-8.8,0h-.617v3.346h2.1a1.122,1.122,0,0,1,1.187.833,1.1,1.1,0,0,1-1.125,1.4H3.7a1.132,1.132,0,0,1-1.172-.925A1.1,1.1,0,0,1,3.2,54.293a2.515,2.515,0,0,1,.833-.092h8.557V50.855c-1.249,0-2.482.046-3.716-.015a8.607,8.607,0,0,1-2.359-.416,6.168,6.168,0,0,1,1.2-11.871c.416-.062.416-.262.416-.57V16.119A3.306,3.306,0,0,1,11.669,12.6H24.1a1.214,1.214,0,0,0-.123-.247,6.168,6.168,0,0,1,3.87-9.775c.062,0,.123-.062.185-.093H41.085a1.036,1.036,0,0,0,.185.093,6.189,6.189,0,0,1,5.088,5.982c0,.493.262.678.74.678h3.269a6.076,6.076,0,0,1,4.887,2.467,7.771,7.771,0,0,1,1.233,2.806V16.3a14.861,14.861,0,0,1-1,2.451,6.091,6.091,0,0,1-4.594,2.852V40.694a3.232,3.232,0,0,1-2.821,3.346c-.54.093-1.11.077-1.665.123V54.2h8.572a1.516,1.516,0,0,1,1.526.786v.74ZM32.868,14.916c-.154-.015-.231-.031-.324-.031H11.622c-.894,0-1.233.37-1.233,1.264V40.54c0,.94.339,1.3,1.3,1.3H47.237c.987,0,1.31-.339,1.31-1.326V21.638H39.189A6.1,6.1,0,0,1,33.376,18a5.9,5.9,0,0,1-.54-3.068Zm1.665-10.16c-1.773,0-3.546-.046-5.319.015a5.662,5.662,0,0,0-2.081.447,3.826,3.826,0,0,0-2.051,4.317,3.959,3.959,0,0,0,3.839,3.083c1.681.031,3.376,0,5.057,0,1.156,0,1.588.586,1.3,1.681a3.906,3.906,0,0,0,3.669,5.042q5.712.092,11.424,0a3.919,3.919,0,1,0-.278-7.832c-1.156-.015-2.313.031-3.469-.031a2.657,2.657,0,0,1-2.5-2.467,10.247,10.247,0,0,0-.139-1.2A3.925,3.925,0,0,0,39.96,4.772H34.533ZM14.891,48.542c3.392,0,6.707.077,10.021-.031a3.732,3.732,0,0,0,3.361-4.363H14.891v4.394Zm-6.8-7.755A3.864,3.864,0,0,0,4.777,44.5a3.746,3.746,0,0,0,2.945,3.9,42.471,42.471,0,0,0,4.872.2V44.1a4.985,4.985,0,0,1-3.053-.617,3.393,3.393,0,0,1-1.465-2.713Z" transform="translate(0 0)" fill="#c7a386"/>
    <path id="Path_97830" data-name="Path 97830" d="M19.328,15.56a11.114,11.114,0,0,1,1.434.463c1.711.833,3.423,1.7,5.119,2.559a2.954,2.954,0,0,1-.015,5.381c-1.7.848-3.376,1.7-5.072,2.528a2.94,2.94,0,0,1-4.425-2.683c-.031-1.7-.031-3.407,0-5.1a3.063,3.063,0,0,1,2.96-3.145Zm.062,2.359c-.509,0-.771.308-.771.833v5c0,.786.478,1.079,1.187.725,1.65-.817,3.3-1.634,4.918-2.482.262-.139.6-.478.586-.694a1.128,1.128,0,0,0-.586-.755c-1.588-.833-3.207-1.634-4.826-2.436a4.832,4.832,0,0,0-.509-.2Z" transform="translate(7.496 7.081)" fill="#c7a386"/>
  </g>
</svg>
